<?xml version="1.0" standalone="no"?>
<!DOCTYPE svg PUBLIC "-//W3C//DTD SVG 20010904//EN"
 "http://www.w3.org/TR/2001/REC-SVG-20010904/DTD/svg10.dtd">
<svg version="1.0" xmlns="http://www.w3.org/2000/svg"
 width="313.000000pt" height="113.000000pt" viewBox="0 0 313.000000 113.000000"
 preserveAspectRatio="xMidYMid meet">
<metadata>
Created by potrace 1.15, written by Peter Selinger 2001-2017
</metadata>
<g transform="translate(0.000000,113.000000) scale(0.100000,-0.100000)"
fill="#000000" stroke="none">
<path d="M125 1055 c-32 -31 -34 -91 -5 -128 27 -34 25 -49 -13 -72 -18 -11
-40 -36 -50 -55 -24 -46 -17 -144 17 -259 37 -122 56 -231 63 -364 4 -78 10
-116 17 -114 6 2 22 23 36 48 32 58 38 178 16 307 -22 126 -20 183 6 238 41
88 146 139 319 155 144 13 149 10 149 -81 0 -76 2 -74 -75 -83 -16 -2 -4 -5
27 -6 37 0 58 3 61 12 4 10 7 10 18 0 7 -7 33 -12 59 -11 l45 1 -45 6 -45 6
-2 60 c-4 80 -12 125 -23 125 -5 0 -7 -8 -3 -17 5 -17 5 -17 -8 -1 -17 21
-100 34 -280 44 -140 7 -140 8 -106 72 27 49 20 112 -14 131 -14 8 -33 12 -42
8 -15 -5 -15 -9 -2 -34 8 -15 14 -37 14 -48 0 -11 -5 -5 -10 15 -19 69 -79 91
-124 45z"/>
<path d="M920 720 l0 -130 65 0 c58 0 65 2 65 20 0 17 -7 20 -40 20 l-40 0 0
110 0 110 -25 0 -25 0 0 -130z"/>
<path d="M1858 840 c-22 -13 -32 -63 -18 -89 6 -12 28 -30 50 -41 46 -24 63
-48 49 -73 -13 -23 -35 -22 -56 3 -20 23 -53 27 -53 5 0 -28 38 -55 78 -55 52
0 82 23 82 64 0 39 -13 56 -68 90 -28 18 -42 33 -40 44 4 23 36 27 58 7 13
-12 23 -14 36 -7 16 9 15 12 -9 36 -27 27 -76 34 -109 16z"/>
<path d="M356 765 c-140 -57 -177 -144 -141 -340 8 -45 14 -144 15 -224 0
-133 1 -142 17 -130 40 33 57 99 56 209 0 58 -8 143 -17 189 -17 91 -14 135
14 191 21 40 72 91 115 113 46 25 7 19 -59 -8z"/>
<path d="M1130 783 c-39 -15 -50 -36 -50 -98 0 -73 17 -95 73 -95 34 0 67 20
67 41 0 13 -27 11 -49 -3 -26 -16 -51 -3 -51 27 0 23 3 25 50 25 l50 0 0 34
c0 32 -20 66 -40 66 -5 0 -14 2 -22 4 -7 3 -20 2 -28 -1z"/>
<path d="M1300 783 c-39 -14 -54 -80 -26 -119 13 -17 12 -21 -2 -37 -12 -13
-13 -20 -4 -29 9 -9 8 -16 -6 -31 -16 -18 -16 -20 3 -33 22 -16 82 -18 119 -4
18 6 26 17 26 34 0 31 -17 44 -64 48 -48 4 -62 28 -18 28 42 0 62 23 62 71 0
28 4 39 15 39 8 0 15 9 15 20 0 18 -3 19 -21 10 -15 -8 -29 -8 -51 -1 -17 6
-31 11 -32 10 -1 0 -8 -3 -16 -6z"/>
<path d="M1495 783 c-44 -11 -64 -53 -25 -53 11 0 20 5 20 10 0 6 11 10 25 10
43 0 31 -33 -20 -58 -50 -24 -60 -40 -51 -77 5 -20 13 -25 39 -25 18 0 38 5
45 12 9 9 12 9 12 0 0 -7 10 -12 23 -12 21 0 22 3 19 84 -2 49 -8 89 -15 94
-17 14 -49 20 -72 15z"/>
<path d="M2085 783 c-38 -10 -45 -24 -45 -94 0 -80 13 -99 70 -99 29 0 43 6
55 23 15 21 14 22 -6 25 -12 2 -25 -2 -29 -8 -13 -21 -45 -7 -48 23 -3 26 -2
27 47 27 50 0 51 1 51 29 0 50 -46 85 -95 74z"/>
<path d="M2643 780 c-30 -12 -43 -41 -43 -97 0 -68 20 -93 74 -93 45 0 59 9
70 48 6 17 3 22 -12 22 -11 0 -26 -10 -35 -22 -31 -47 -70 18 -53 88 5 17 13
24 31 24 16 0 25 -6 25 -15 0 -8 9 -15 20 -15 23 0 28 31 7 48 -19 16 -60 22
-84 12z"/>
<path d="M2835 783 c-33 -8 -45 -34 -45 -99 0 -75 14 -94 70 -94 29 0 43 6 55
22 19 28 4 36 -30 18 -32 -17 -55 -6 -55 25 0 23 3 25 50 25 l50 0 0 33 c0 49
-44 81 -95 70z"/>
<path d="M974 522 c-45 -7 -59 -37 -59 -132 0 -108 14 -130 82 -130 50 0 83
26 83 65 0 34 -47 37 -52 3 -2 -17 -10 -23 -28 -23 -25 0 -25 1 -25 85 0 81 1
85 23 88 17 3 25 -2 29 -17 8 -31 53 -29 53 2 0 41 -49 68 -106 59z"/>
<path d="M1140 440 c-16 -16 -20 -33 -20 -83 0 -77 16 -97 77 -97 49 0 64 15
70 74 10 84 -15 126 -73 126 -21 0 -42 -8 -54 -20z"/>
<path d="M1310 360 c0 -93 1 -100 20 -100 18 0 20 7 20 74 0 55 4 77 16 87 24
20 34 -5 34 -88 0 -66 2 -73 20 -73 18 0 20 7 20 73 0 68 10 97 32 97 4 0 8
-38 8 -85 0 -84 0 -85 25 -85 25 0 25 1 25 89 0 104 -11 123 -62 103 -22 -8
-35 -8 -48 0 -14 9 -25 9 -44 0 -16 -7 -26 -8 -26 -2 0 6 -9 10 -20 10 -19 0
-20 -7 -20 -100z"/>
<path d="M1570 360 l0 -100 25 0 c24 0 25 2 25 74 0 49 4 77 13 85 22 18 27 2
27 -81 0 -77 0 -78 25 -78 25 0 25 1 25 79 0 58 4 80 14 84 23 9 26 -2 26 -85
0 -77 0 -78 25 -78 24 0 25 2 25 74 0 93 -11 126 -44 126 -13 0 -29 -7 -36
-15 -11 -13 -14 -13 -26 2 -11 15 -17 16 -43 6 -17 -6 -31 -7 -31 -2 0 5 -11
9 -25 9 l-25 0 0 -100z"/>
<path d="M1950 440 c-11 -11 -20 -26 -20 -33 0 -22 28 -54 60 -67 30 -12 39
-33 19 -45 -5 -4 -18 0 -28 9 -34 31 -66 9 -35 -25 23 -26 85 -26 109 1 27 29
13 66 -35 90 -22 11 -40 27 -40 35 0 17 37 20 42 4 2 -7 13 -9 27 -4 l23 7
-23 24 c-28 30 -72 31 -99 4z"/>
<path d="M2118 449 c-12 -6 -18 -22 -18 -44 0 -29 6 -37 42 -57 23 -13 43 -29
46 -35 6 -21 -27 -27 -48 -8 -11 10 -26 15 -36 11 -15 -6 -15 -9 -1 -29 10
-15 26 -23 54 -25 95 -7 96 93 2 123 -10 4 -19 13 -19 21 0 17 31 19 47 3 7
-7 17 -8 28 -1 16 9 16 11 -4 31 -22 22 -65 27 -93 10z"/>
<path d="M2380 440 c-15 -15 -20 -33 -20 -78 0 -78 17 -102 75 -102 58 0 75
24 75 102 0 70 -21 98 -75 98 -22 0 -43 -8 -55 -20z"/>
<path d="M2550 360 c0 -93 1 -100 20 -100 18 0 20 7 20 75 0 62 3 76 19 84 10
6 21 7 25 4 3 -3 6 -42 6 -85 0 -77 0 -78 25 -78 25 0 25 1 25 88 0 55 -4 92
-12 100 -16 16 -50 15 -67 0 -11 -10 -14 -10 -18 0 -3 6 -13 12 -24 12 -17 0
-19 -8 -19 -100z"/>
</g>
</svg>
